<svg xmlns="http://www.w3.org/2000/svg" fill-rule="evenodd" viewBox="0 0 229 106" clip-rule="evenodd">
<style>
svg * {transition:opacity .4s ease-out;}
@media all and (max-width: 150px) {
#claim {opacity:0;}
}
@media all and (max-width: 100px) {
#mc {opacity:0;}
}
</style>
<path id="mc" fill="#ff6b00" d="M199.46 39.52c0 2.445 1.313 3.995 3.18 3.995.993 0 1.686-.42 2.262-1.095l-.31-.34c-.555.63-1.143.945-1.927.945-1.627 0-2.653-1.374-2.653-3.506 0-2.132 1.038-3.472 2.698-3.472.693 0 1.245.315 1.66.78l.312-.35c-.403-.477-1.083-.918-1.972-.918-1.937 0-3.25 1.525-3.25 3.96m-7.565 3.855h.484v-5.043c0-.63-.034-1.434-.058-2.074h.046l.6 1.688 1.637 4.59h.46l1.64-4.59.587-1.688h.046c-.035.64-.07 1.445-.07 2.074v5.043h.52v-7.677h-.75l-1.58 4.51-.588 1.7h-.047l-.598-1.7-1.592-4.51h-.738v7.677"/><path id="synpulse" fill="#ff6b00" d="M170.613 46.23c.474-5.84 4.17-9.48 8.245-9.48 4.266 0 7.11 3.16 7.11 9.48h-15.355zm-1.517 1.246c0 7.468 4.644 11.967 10.33 11.967 3.414 0 5.31-1.148 7.016-2.2l-.664-1.246c-1.705 1.245-3.696 2.106-6.255 2.106-5.405 0-8.91-4.5-8.91-10.627h16.68c.097-.574.097-1.053.097-1.532 0-6.8-3.317-10.533-8.532-10.533-5.024 0-9.762 4.597-9.762 12.066zm-19.905 8.808c1.992 1.724 4.835 3.16 8.247 3.16 4.74 0 7.393-2.968 7.393-6.32 0-4.5-3.982-5.602-7.583-6.99-2.748-1.053-5.497-2.2-5.497-4.882 0-2.25 1.705-4.5 5.497-4.5 2.37 0 3.98.957 5.498 2.106l.853-1.15c-1.61-1.34-3.98-2.297-6.255-2.297-4.646 0-7.11 2.778-7.11 5.937 0 3.926 3.886 5.266 7.394 6.51 2.653.96 5.686 2.3 5.686 5.363 0 2.585-1.99 4.883-5.782 4.883-3.41 0-5.496-1.34-7.392-2.967l-.947 1.148zm-7.96.095c0 2.202.852 3.063 2.273 3.063.57 0 .854-.095 1.232-.19l-.284-1.245c-.473.095-.662.095-.852.095-.568 0-.948-.48-.948-1.437v-32.36h-1.42v32.073zm-25.214-5.65c0 5.936 2.18 8.713 6.825 8.713 3.128 0 5.497-1.82 7.772-4.5h.096l.19 3.926h1.23V35.984h-1.42v17.14c-2.845 3.446-4.93 4.978-7.773 4.978-3.886 0-5.497-2.49-5.497-7.563V35.985h-1.422V50.73zm-23.79 4.214v-14.17c2.936-2.586 5.496-4.023 7.866-4.023 5.593 0 7.678 4.502 7.678 10.342 0 6.415-3.508 11.01-8.436 11.01-1.8 0-4.362-.86-7.11-3.158zm0 1.627c2.462 1.82 4.833 2.873 7.012 2.873 5.403 0 10.05-4.596 10.05-12.35 0-7.086-2.94-11.682-9.1-11.682-2.845 0-5.594 1.725-7.87 3.544h-.093l-.19-2.97h-1.233v33.513h1.423V56.57zm-26.35 2.3h1.42V41.346c2.94-3.064 5.024-4.596 7.867-4.596 3.886 0 5.498 2.49 5.498 7.565V58.87h1.422V44.123c0-5.936-2.18-8.713-6.825-8.713-3.127 0-5.496 1.82-7.866 4.214h-.094l-.19-3.64h-1.23V58.87zm-23.32 8.808l-.378 1.34c.568.288 1.42.48 2.18.48 3.885 0 6.16-3.83 7.298-7.373l9.1-26.14H59.24L54.12 51.02c-.663 1.913-1.42 4.403-2.18 6.412h-.19c-.852-2.01-1.8-4.5-2.56-6.413l-5.78-15.035h-1.612l9.384 23.458-.664 2.106c-1.23 3.734-3.222 6.51-6.065 6.51-.664 0-1.422-.19-1.897-.382zM23.884 56.284c1.99 1.724 4.834 3.16 8.246 3.16 4.74 0 7.162-2.976 7.393-6.32.303-4.407-3.273-5.384-7.582-6.99-2.76-1.026-5.497-2.2-5.497-4.882 0-2.25 1.707-4.5 5.498-4.5 2.37 0 3.98.957 5.498 2.106l.854-1.15c-1.612-1.34-3.98-2.297-6.256-2.297-4.645 0-7.11 2.778-7.11 5.937 0 3.926 3.886 5.266 7.394 6.51 2.655.96 5.686 2.3 5.686 5.363 0 1.212-.437 2.36-1.292 3.24-.968.995-2.474 1.643-4.488 1.643-3.414 0-5.5-1.34-7.394-2.967l-.948 1.148z"/><path id="claim" fill="#1d1d1b" d="M96.524 80.647c.6.508 1.466.93 2.457.93 1.454 0 2.263-.888 2.263-1.902 0-1.326-1.144-1.68-2.192-2.074-.795-.296-1.576-.62-1.576-1.367 0-.62.474-1.227 1.507-1.227.686 0 1.16.268 1.607.606l.336-.437c-.49-.41-1.2-.705-1.913-.705-1.397 0-2.165.818-2.165 1.805 0 1.156 1.118 1.566 2.136 1.932.77.282 1.634.648 1.634 1.495 0 .72-.544 1.34-1.59 1.34-.964 0-1.564-.38-2.137-.86l-.363.465zm67.46-2.538c.027 1.705 1.018 2.932 2.527 2.932.728 0 1.3-.24 1.802-.606l.25.48c-.53.323-1.13.66-2.107.66-1.718 0-3.1-1.324-3.1-3.538 0-2.215 1.424-3.566 2.918-3.566 1.592 0 2.57 1.142 2.57 3.13 0 .168 0 .337-.028.507h-4.83zm-9.103-6.842v9.322c0 .3.127.438.294.438.056 0 .112 0 .25-.028l.113.506c-.125.044-.25.07-.447.07-.545 0-.822-.337-.822-1.07v-9.238h.613zm-8.78 6.77c0 2.24 1.395 3.54 3 3.54 1.62 0 3.017-1.3 3.017-3.54 0-2.27-1.397-3.566-3.016-3.566-1.605 0-3 1.295-3 3.566zm-12.62.07c.027 1.707 1.018 2.934 2.525 2.934.727 0 1.3-.24 1.8-.606l.254.48c-.532.323-1.132.66-2.11.66-1.717 0-3.1-1.324-3.1-3.538 0-2.215 1.425-3.566 2.92-3.566 1.59 0 2.568 1.142 2.568 3.13 0 .168 0 .337-.03.507h-4.828zm-13.626-.07c0 2.214 1.382 3.54 3.1 3.54.976 0 1.576-.34 2.107-.663l-.25-.48c-.504.367-1.075.607-1.802.607-1.507 0-2.498-1.227-2.527-2.933h4.832c.03-.17.03-.34.03-.51 0-1.988-.98-3.13-2.57-3.13-1.494 0-2.918 1.353-2.918 3.568zm-8.474-6.77v9.322c0 .297.124.438.292.438.056 0 .11 0 .252-.028l.112.506c-.126.044-.253.07-.447.07-.546 0-.825-.337-.825-1.07V71.27h.615zm-8.783 6.77c0 2.243 1.397 3.54 3.002 3.54 1.62 0 3.014-1.297 3.014-3.54 0-2.27-1.395-3.568-3.015-3.568-1.606 0-3.003 1.297-3.003 3.568zm54.672-3.398l1.506 4.244c.21.65.462 1.326.67 1.948h.057c.223-.622.46-1.298.683-1.948l1.51-4.244h.626l-2.484 6.768h-.727l-2.51-6.768h.67zm-17.257 0l1.507 4.244c.21.65.46 1.326.67 1.948h.056c.224-.622.46-1.298.685-1.948l1.508-4.244h.63l-2.487 6.768h-.725l-2.513-6.768h.67zm-26.247 0l1.507 4.244c.21.65.462 1.326.67 1.947H116c.223-.62.46-1.297.685-1.946l1.507-4.244h.63l-2.487 6.768h-.726l-2.514-6.768h.67zm32.976 3.398c0-1.792 1.006-3.018 2.36-3.018 1.353 0 2.373 1.226 2.373 3.018 0 1.777-1.02 2.99-2.374 2.99-1.352 0-2.358-1.213-2.358-2.99zm-43.503 0c0-1.79 1.005-3.018 2.36-3.018 1.354 0 2.373 1.228 2.373 3.018 0 1.777-1.02 2.99-2.374 2.99-1.355 0-2.36-1.213-2.36-2.99zm25.02.114c0 .395.293.636.6.636.306 0 .585-.24.585-.636 0-.41-.28-.648-.586-.648-.307 0-.6.24-.6.648zm-3.507-.522c0-1.736-.768-2.624-1.968-2.624-1.145 0-2.163 1-2.304 2.624h4.273zm43.503-.002c0-1.734-.768-2.622-1.968-2.622-1.145 0-2.165 1-2.304 2.622h4.272zm-30.504 0c0-1.734-.768-2.622-1.97-2.622-1.145 0-2.163 1-2.302 2.622h4.272z"/></svg>
